<?xml version="1.0" encoding="UTF-8"?>
<svg xmlns="http://www.w3.org/2000/svg" xmlns:xlink="http://www.w3.org/1999/xlink" width="24px" height="24px" viewBox="0 0 24 24" version="1.1">
<g id="surface1">
<path style=" stroke:none;fill-rule:nonzero;fill:rgb(0%,0%,0%);fill-opacity:1;" d="M 12.511719 0.03125 C 10.371094 0.300781 8.207031 2.253906 5.917969 5.996094 C 5.484375 6.703125 5.277344 7.066406 3.492188 10.304688 C 2.585938 11.953125 1.640625 13.667969 1.394531 14.117188 L 0.945312 14.933594 L 0.933594 14.667969 L 0.925781 14.398438 L 0.460938 14.390625 L 0 14.386719 L 0 16.992188 L 0.933594 16.992188 L 0.933594 16.460938 L 3.3125 12.234375 C 4.621094 9.910156 5.707031 7.996094 5.722656 7.976562 C 5.742188 7.957031 7.019531 7.148438 8.5625 6.179688 C 10.101562 5.210938 11.589844 4.273438 11.859375 4.097656 C 12.59375 3.625 12.660156 3.597656 12.992188 3.597656 C 13.3125 3.597656 13.382812 3.625 13.925781 3.96875 C 14.082031 4.066406 15.566406 5.003906 17.226562 6.046875 C 18.882812 7.089844 20.257812 7.957031 20.277344 7.976562 C 20.292969 7.996094 21.03125 9.289062 21.910156 10.851562 C 22.789062 12.414062 23.859375 14.316406 24.289062 15.078125 L 25.066406 16.460938 L 25.066406 16.992188 L 26 16.992188 L 26 14.367188 L 25.539062 14.371094 L 25.074219 14.375 L 25.066406 14.65625 L 25.054688 14.933594 L 24.089844 13.1875 C 19.988281 5.785156 20.277344 6.296875 19.570312 5.210938 C 18.75 3.941406 18 2.980469 17.191406 2.15625 C 15.613281 0.554688 14.035156 -0.160156 12.511719 0.03125 Z M 12.511719 0.03125 "/>
<path style=" stroke:none;fill-rule:nonzero;fill:rgb(0%,0%,0%);fill-opacity:1;" d="M 8.027344 7.316406 C 6.964844 7.980469 6.363281 8.363281 6.34375 8.394531 C 6.324219 8.4375 5.824219 9.601562 4.632812 12.382812 C 4.445312 12.820312 3.96875 13.925781 3.578125 14.835938 C 3.183594 15.75 2.863281 16.503906 2.863281 16.507812 C 2.863281 16.511719 7.425781 16.515625 13 16.515625 C 18.574219 16.515625 23.136719 16.511719 23.136719 16.507812 C 23.136719 16.503906 22.816406 15.75 22.421875 14.835938 C 22.03125 13.925781 21.554688 12.820312 21.367188 12.382812 C 21.183594 11.945312 20.769531 10.988281 20.453125 10.253906 C 20.140625 9.519531 19.828125 8.796875 19.765625 8.644531 C 19.695312 8.488281 19.636719 8.359375 19.628906 8.351562 C 19.609375 8.332031 16.335938 6.285156 16.324219 6.285156 C 16.324219 6.285156 16.417969 7.246094 16.535156 8.417969 C 17.042969 13.394531 17.003906 13.007812 16.980469 13.152344 C 16.914062 13.535156 16.609375 13.863281 16.253906 13.933594 C 16.089844 13.964844 9.929688 13.960938 9.785156 13.929688 C 9.511719 13.871094 9.273438 13.675781 9.148438 13.402344 C 9.078125 13.257812 9.070312 13.222656 9.0625 13.042969 C 9.058594 12.902344 9.144531 11.980469 9.371094 9.632812 C 9.542969 7.867188 9.691406 6.386719 9.695312 6.351562 C 9.703125 6.316406 9.703125 6.285156 9.691406 6.285156 C 9.683594 6.285156 8.933594 6.75 8.027344 7.316406 Z M 8.027344 7.316406 "/>
</g>
</svg>
