<?xml version="1.0" encoding="UTF-8"?>
<svg xmlns="http://www.w3.org/2000/svg" xmlns:xlink="http://www.w3.org/1999/xlink" width="24px" height="24px" viewBox="0 0 24 24" version="1.1">
<g id="surface1">
<path style=" stroke:none;fill-rule:nonzero;fill:#554d44;fill-opacity:1;" d="M 13.292969 0.246094 C 13.292969 0.726562 13.152344 1.421875 12.964844 1.878906 C 12.6875 2.5625 12.300781 3.085938 11.417969 3.984375 C 10.363281 5.058594 9.445312 6.167969 8.765625 7.191406 C 8.285156 7.914062 7.933594 8.558594 7.699219 9.148438 C 7.394531 9.929688 7.300781 10.492188 7.347656 11.339844 C 7.359375 11.574219 7.378906 11.820312 7.386719 11.886719 C 7.394531 11.953125 7.40625 12.050781 7.414062 12.101562 C 7.421875 12.152344 7.449219 12.304688 7.472656 12.441406 C 7.597656 13.078125 7.785156 13.628906 8.074219 14.199219 C 8.414062 14.867188 8.792969 15.378906 9.402344 15.984375 C 9.789062 16.371094 10.03125 16.585938 10.449219 16.898438 C 10.691406 17.082031 11.304688 17.5 11.3125 17.488281 C 11.316406 17.488281 11.351562 17.390625 11.390625 17.277344 C 11.472656 17.03125 11.636719 16.6875 11.785156 16.429688 C 11.894531 16.246094 12.222656 15.753906 12.339844 15.601562 C 12.773438 15.03125 13.304688 14.464844 13.960938 13.863281 C 14.730469 13.160156 15.320312 12.589844 15.53125 12.335938 C 15.71875 12.117188 15.988281 11.757812 16.136719 11.527344 C 16.628906 10.773438 16.859375 9.796875 16.863281 8.484375 C 16.863281 8.097656 16.855469 7.894531 16.828125 7.714844 C 16.6875 6.617188 16.398438 5.585938 15.890625 4.375 C 15.222656 2.761719 14.234375 1.109375 13.457031 0.308594 L 13.296875 0.140625 Z M 13.292969 0.246094 "/>
<path style=" stroke:none;fill-rule:nonzero;fill:#554d44;fill-opacity:1;" d="M 17.832031 6.199219 C 17.832031 6.210938 17.847656 6.304688 17.871094 6.414062 C 18.039062 7.277344 18.117188 8.328125 18.078125 9.136719 C 18.050781 9.605469 18.003906 10.039062 17.953125 10.257812 C 17.746094 11.078125 16.816406 12.394531 15.515625 13.695312 C 15.28125 13.933594 14.96875 14.230469 14.832031 14.351562 C 14.53125 14.621094 14.414062 14.738281 14.128906 15.066406 C 13.613281 15.660156 13.28125 16.191406 13.238281 16.492188 C 13.226562 16.5625 13.203125 16.742188 13.179688 16.886719 C 13.140625 17.152344 13.140625 17.242188 13.183594 17.378906 C 13.199219 17.425781 13.210938 17.4375 13.234375 17.425781 C 13.371094 17.367188 13.777344 17.238281 14.015625 17.175781 C 14.394531 17.074219 14.800781 16.992188 15.554688 16.867188 C 17.230469 16.589844 17.644531 16.453125 18.460938 15.910156 C 19.183594 15.425781 19.726562 14.871094 19.984375 14.347656 C 20.167969 13.976562 20.351562 13.273438 20.421875 12.675781 C 20.457031 12.367188 20.453125 11.554688 20.414062 11.210938 C 20.21875 9.5 19.457031 7.777344 18.429688 6.703125 C 18.234375 6.5 17.878906 6.1875 17.84375 6.1875 C 17.835938 6.1875 17.832031 6.191406 17.832031 6.199219 Z M 17.832031 6.199219 "/>
<path style=" stroke:none;fill-rule:nonzero;fill:#554d44;fill-opacity:1;" d="M 6.289062 8.914062 C 5.917969 9.164062 5.660156 9.375 5.308594 9.71875 C 4.957031 10.070312 4.765625 10.292969 4.527344 10.652344 C 4.019531 11.410156 3.75 12.257812 3.773438 13.019531 C 3.789062 13.5 3.914062 13.980469 4.152344 14.464844 C 4.597656 15.367188 5.355469 16.101562 6.347656 16.59375 C 7.019531 16.925781 7.6875 17.125 8.539062 17.25 C 8.828125 17.289062 9.5 17.347656 9.5625 17.339844 C 9.59375 17.335938 9.542969 17.296875 9.363281 17.1875 C 8.035156 16.367188 7.179688 15.59375 6.675781 14.742188 C 6.453125 14.375 6.246094 13.820312 6.21875 13.519531 C 6.210938 13.453125 6.195312 13.347656 6.1875 13.285156 C 6.179688 13.222656 6.15625 13.066406 6.140625 12.9375 C 6.125 12.808594 6.101562 12.632812 6.09375 12.542969 C 6.082031 12.457031 6.066406 12.175781 6.0625 11.921875 C 6.050781 11.472656 6.070312 11.152344 6.132812 10.660156 C 6.140625 10.578125 6.15625 10.476562 6.160156 10.433594 C 6.167969 10.394531 6.179688 10.3125 6.1875 10.257812 C 6.195312 10.199219 6.210938 10.121094 6.21875 10.078125 C 6.265625 9.75 6.46875 9 6.570312 8.769531 C 6.578125 8.753906 6.578125 8.738281 6.570312 8.738281 C 6.5625 8.738281 6.433594 8.816406 6.289062 8.914062 Z M 6.289062 8.914062 "/>
<path style=" stroke:none;fill-rule:nonzero;fill:#554d44;fill-opacity:1;" d="M 18.121094 17.898438 C 17.472656 18.003906 16.65625 18.132812 16.3125 18.179688 C 15.042969 18.351562 14.371094 18.484375 13.613281 18.710938 C 13.253906 18.820312 12.820312 18.980469 12.839844 18.996094 C 12.859375 19.015625 13.40625 19.179688 13.828125 19.292969 C 14.78125 19.546875 16.257812 19.847656 16.894531 19.914062 L 17.089844 19.933594 L 18.683594 19.585938 C 19.5625 19.394531 20.292969 19.230469 20.304688 19.21875 C 20.347656 19.199219 20.417969 18.988281 20.429688 18.847656 C 20.445312 18.699219 20.40625 18.53125 20.328125 18.386719 C 20.257812 18.25 20.039062 18.046875 19.863281 17.941406 C 19.722656 17.859375 19.359375 17.699219 19.320312 17.703125 C 19.3125 17.703125 18.773438 17.792969 18.121094 17.898438 Z M 18.121094 17.898438 "/>
<path style=" stroke:none;fill-rule:nonzero;fill:#554d44;fill-opacity:1;" d="M 4.675781 18.179688 C 4.527344 18.289062 4.277344 18.542969 4.179688 18.683594 C 4.078125 18.828125 3.988281 19.035156 3.957031 19.226562 C 3.925781 19.382812 3.941406 19.6875 3.988281 19.914062 L 4.023438 20.070312 L 4.265625 20.09375 C 5.007812 20.164062 5.527344 20.222656 6.453125 20.34375 C 6.667969 20.375 7.261719 20.472656 7.558594 20.53125 C 8.121094 20.640625 8.703125 20.816406 9.449219 21.101562 C 10.222656 21.398438 10.605469 21.523438 11.054688 21.636719 C 11.441406 21.730469 11.640625 21.765625 12.308594 21.851562 C 12.964844 21.933594 13.296875 21.980469 13.402344 21.992188 C 13.460938 22.003906 13.578125 22.023438 13.652344 22.03125 C 13.730469 22.039062 13.992188 22.078125 14.242188 22.117188 C 15.050781 22.234375 15.464844 22.292969 15.800781 22.332031 C 16.210938 22.378906 16.402344 22.425781 16.976562 22.613281 C 17.652344 22.835938 18.226562 22.96875 18.195312 22.898438 C 18.171875 22.828125 18.09375 22.535156 18.074219 22.429688 C 18.039062 22.25 18.058594 21.824219 18.109375 21.679688 C 18.234375 21.324219 18.53125 21.035156 18.945312 20.867188 C 19.101562 20.804688 19.117188 20.796875 19.121094 20.742188 L 19.125 20.6875 L 18.914062 20.671875 C 18.730469 20.664062 18.363281 20.625 17.925781 20.570312 C 17.757812 20.546875 17.199219 20.460938 17.015625 20.429688 C 16.363281 20.308594 15.914062 20.222656 15.722656 20.183594 C 15.597656 20.15625 15.414062 20.121094 15.316406 20.101562 C 15.214844 20.078125 15.09375 20.054688 15.050781 20.042969 C 15.007812 20.035156 14.871094 20.003906 14.746094 19.976562 C 13.597656 19.730469 13.144531 19.613281 12.195312 19.320312 C 11.691406 19.167969 11.117188 19.015625 10.847656 18.964844 C 10.652344 18.929688 10.625 18.925781 10.003906 18.835938 C 9.746094 18.800781 9.445312 18.757812 9.335938 18.742188 C 9.039062 18.699219 8.574219 18.632812 7.894531 18.542969 C 7.660156 18.515625 7.378906 18.472656 7.265625 18.460938 C 7.050781 18.429688 6.5 18.355469 5.859375 18.273438 C 5.34375 18.203125 4.832031 18.132812 4.796875 18.121094 C 4.78125 18.117188 4.726562 18.140625 4.675781 18.179688 Z M 4.675781 18.179688 "/>
<path style=" stroke:none;fill-rule:nonzero;fill:#554d44;fill-opacity:1;" d="M 6.167969 20.820312 C 6.09375 20.847656 5.804688 20.929688 5.53125 21.007812 C 5.257812 21.089844 4.984375 21.164062 4.925781 21.183594 C 4.867188 21.199219 4.820312 21.222656 4.820312 21.230469 C 4.820312 21.234375 4.828125 21.242188 4.835938 21.242188 C 4.894531 21.242188 5.238281 21.476562 5.386719 21.617188 C 5.59375 21.8125 5.714844 21.992188 5.785156 22.210938 C 5.835938 22.363281 5.839844 22.398438 5.839844 22.660156 C 5.839844 22.949219 5.816406 23.109375 5.734375 23.386719 C 5.714844 23.457031 5.699219 23.523438 5.703125 23.53125 C 5.707031 23.535156 6.667969 23.160156 7.84375 22.691406 C 9.015625 22.222656 9.972656 21.835938 9.964844 21.828125 C 9.945312 21.808594 8.492188 21.273438 8.15625 21.160156 C 7.46875 20.933594 6.984375 20.832031 6.421875 20.785156 C 6.335938 20.78125 6.273438 20.789062 6.167969 20.820312 Z M 6.167969 20.820312 "/>
<path style=" stroke:none;fill-rule:nonzero;fill:#554d44;fill-opacity:1;" d="M 19.617188 21 C 19.398438 21.058594 19.230469 21.15625 19.050781 21.335938 C 18.917969 21.46875 18.871094 21.527344 18.808594 21.65625 C 18.707031 21.867188 18.671875 22.003906 18.671875 22.214844 C 18.671875 22.546875 18.75 22.765625 18.9375 22.933594 C 19.101562 23.089844 19.21875 23.128906 19.539062 23.128906 C 19.746094 23.128906 19.8125 23.121094 19.921875 23.085938 C 20.25 22.980469 20.53125 22.722656 20.652344 22.40625 C 20.703125 22.265625 20.707031 21.84375 20.65625 21.65625 C 20.578125 21.367188 20.402344 21.128906 20.199219 21.027344 C 20.054688 20.953125 19.820312 20.945312 19.617188 21 Z M 19.617188 21 "/>
<path style=" stroke:none;fill-rule:nonzero;fill:#554d44;fill-opacity:1;" d="M 4.050781 21.574219 C 3.5625 21.640625 3.257812 21.898438 3.140625 22.359375 C 3.105469 22.5 3.101562 22.921875 3.140625 23.058594 C 3.230469 23.390625 3.4375 23.613281 3.78125 23.730469 C 3.921875 23.78125 3.945312 23.78125 4.257812 23.78125 C 4.558594 23.78125 4.59375 23.777344 4.722656 23.734375 C 4.972656 23.644531 5.125 23.515625 5.230469 23.308594 C 5.328125 23.113281 5.351562 22.992188 5.351562 22.667969 C 5.347656 22.40625 5.34375 22.363281 5.300781 22.242188 C 5.277344 22.167969 5.234375 22.070312 5.203125 22.027344 C 5.089844 21.828125 4.847656 21.664062 4.585938 21.609375 C 4.441406 21.578125 4.15625 21.5625 4.050781 21.574219 Z M 4.050781 21.574219 "/>
</g>
</svg>
